name GIL04_xslow1.mot
datacolumns 153
datarows 4
range 0.75000000 0.77500004
endheader

                time	           pelvis_tx	           pelvis_ty	           pelvis_tz	         pelvis_tilt	         pelvis_list	     pelvis_rotation	       hip_flexion_r	     hip_adduction_r	      hip_rotation_r	        knee_angle_r	       ankle_angle_r	    subtalar_angle_r	         mtp_angle_r	       hip_flexion_l	     hip_adduction_l	      hip_rotation_l	        knee_angle_l	       ankle_angle_l	    subtalar_angle_l	         mtp_angle_l	    lumbar_extension	      lumbar_bending	     lumbar_rotation	     ground_force_vx	     ground_force_vy	     ground_force_vz	     ground_force_px	     ground_force_py	     ground_force_pz	     ground_force_vx	     ground_force_vy	     ground_force_vz	     ground_force_px	     ground_force_py	     ground_force_pz	     ground_torque_x	     ground_torque_y	     ground_torque_z	     ground_torque_x	     ground_torque_y	     ground_torque_z	    ground_marker_px	    ground_marker_py	    ground_marker_pz	    ground_marker_px	    ground_marker_py	    ground_marker_pz	    ground_marker_px	    ground_marker_py	    ground_marker_pz	    ground_marker_px	    ground_marker_py	    ground_marker_pz	    ground_marker_px	    ground_marker_py	    ground_marker_pz	    ground_marker_px	    ground_marker_py	    ground_marker_pz	    ground_marker_px	    ground_marker_py	    ground_marker_pz	    ground_marker_px	    ground_marker_py	    ground_marker_pz	    ground_marker_px	    ground_marker_py	    ground_marker_pz	    ground_marker_px	    ground_marker_py	    ground_marker_pz	    ground_marker_px	    ground_marker_py	    ground_marker_pz	    ground_marker_px	    ground_marker_py	    ground_marker_pz	    ground_marker_px	    ground_marker_py	    ground_marker_pz	    ground_marker_px	    ground_marker_py	    ground_marker_pz	    ground_marker_px	    ground_marker_py	    ground_marker_pz	    ground_marker_px	    ground_marker_py	    ground_marker_pz	    ground_marker_px	    ground_marker_py	    ground_marker_pz	    ground_marker_px	    ground_marker_py	    ground_marker_pz	    ground_marker_px	    ground_marker_py	    ground_marker_pz	    ground_marker_px	    ground_marker_py	    ground_marker_pz	    ground_marker_px	    ground_marker_py	    ground_marker_pz	    ground_marker_px	    ground_marker_py	    ground_marker_pz	    ground_marker_px	    ground_marker_py	    ground_marker_pz	    ground_marker_px	    ground_marker_py	    ground_marker_pz	    ground_marker_px	    ground_marker_py	    ground_marker_pz	    ground_marker_px	    ground_marker_py	    ground_marker_pz	    ground_marker_px	    ground_marker_py	    ground_marker_pz	    ground_marker_px	    ground_marker_py	    ground_marker_pz	    ground_marker_px	    ground_marker_py	    ground_marker_pz	    ground_marker_px	    ground_marker_py	    ground_marker_pz	    ground_marker_px	    ground_marker_py	    ground_marker_pz	    ground_marker_px	    ground_marker_py	    ground_marker_pz	    ground_marker_px	    ground_marker_py	    ground_marker_pz	    ground_marker_px	    ground_marker_py	    ground_marker_pz	    ground_marker_px	    ground_marker_py	    ground_marker_pz	    ground_marker_px	    ground_marker_py	    ground_marker_pz	    ground_marker_px	    ground_marker_py	    ground_marker_pz	
          0.75000000	          0.98163128	          0.75662446	         -0.19138587	          6.12302446	         -0.52096617	          1.67891383	        -10.16670132	          7.82160473	          5.34772158	        -11.79204178	         14.45187092	          0.00000000	          0.00000000	         20.21855545	          0.28730914	         -7.96660280	        -11.86547375	          4.45410109	          0.00000000	          0.00000000	        -26.39652824	         -0.90354705	          3.25428867	          2.67534177	        314.59317910	         -4.80749699	          0.90402740	          0.00000000	         -0.18106876	          0.00000000	          0.00000000	          0.00000000	          1.25395557	          0.00000000	         -0.25902707	          0.00000000	          0.98173071	          0.00000000	          0.00000000	          0.00000000	          0.00000000	          0.93143660	          0.67952919	         -0.19359243	          0.92742980	          0.68490410	         -0.12637748	          0.92364550	          0.68414402	         -0.25214717	          0.90447325	          0.37793759	         -0.16609006	          1.06706941	          0.39440271	         -0.25308964	          0.81571543	          0.05543620	         -0.17397870	          1.14464164	          0.07832088	         -0.27153048	          0.98163128	          0.75662446	         -0.19138587	          0.98450267	          0.75720119	         -0.09595759	          0.97875994	          0.75604773	         -0.28681415	          0.83333331	          0.77641577	         -0.17096773	          0.83216774	          0.76737076	         -0.22407241	          0.91018152	          0.37108022	         -0.11638450	          1.05948281	          0.39080760	         -0.30237976	          0.90053153	          0.37956476	         -0.21791281	          1.08472323	          0.39407209	         -0.19713722	          0.81490320	          0.05484069	         -0.14049384	          1.13175082	          0.07702277	         -0.30350542	          0.81108582	          0.06870236	         -0.19936471	          1.14254940	          0.08462660	         -0.24259703	          0.87923646	          1.13410676	         -0.19648744	          0.96033031	          1.08304739	         -0.13560830	          0.94876033	          1.08284688	         -0.26548094	          0.94803572	          1.07202804	         -0.20257236	          0.95689499	          0.92822230	         -0.20234637	          0.92640221	          0.45111343	         -0.02965918	          1.13491392	          0.54043519	         -0.30695978	          0.95433414	          0.51716965	         -0.09180953	          1.05520618	          0.56531966	         -0.24230522	          0.96005970	          0.43773314	         -0.11898196	          1.08740628	          0.48365781	         -0.23229787	          0.83963788	          0.15243451	         -0.06220990	          1.19115174	          0.19682692	         -0.32164896	          0.85407180	          0.20820385	         -0.12015673	          1.12652743	          0.23732540	         -0.28632903	          0.90927476	          0.03687940	         -0.18683265	          1.23214948	          0.08838792	         -0.28872526	
          0.75833333	          0.98550546	          0.75578213	         -0.19170260	          6.19941139	         -0.59302896	          1.68697965	        -10.44090366	          7.92791033	          5.47609043	        -12.09840488	         14.93145657	          0.00000000	          0.00000000	         20.23480606	          0.43485233	         -7.81938124	        -10.33312988	          4.25015163	          0.00000000	          0.00000000	        -26.39974213	         -0.89587897	          3.23611498	          2.64510812	        316.84369561	         -4.83910522	          0.90538934	          0.00000000	         -0.18086238	          0.00000000	          0.00000000	          0.00000000	          1.25418494	          0.00000000	         -0.25908752	          0.00000000	          0.96169604	          0.00000000	          0.00000000	          0.00000000	          0.00000000	          0.93533564	          0.67861778	         -0.19384284	          0.93141693	          0.68407011	         -0.12659100	          0.92760003	          0.68314940	         -0.25235862	          0.90738678	          0.37728986	         -0.16643384	          1.07152081	          0.39363742	         -0.25215194	          0.81584692	          0.05541761	         -0.17398241	          1.15801716	          0.07947922	         -0.27130327	          0.98550546	          0.75578213	         -0.19170260	          0.98839980	          0.75648028	         -0.09633373	          0.98261112	          0.75508392	         -0.28707147	          0.83718842	          0.77542907	         -0.17153160	          0.83607411	          0.76625013	         -0.22458924	          0.91318804	          0.37038225	         -0.11674601	          1.06409693	          0.38991168	         -0.30145720	          0.90440726	          0.37867332	         -0.21845867	          1.09131932	          0.39348862	         -0.19588576	          0.81504411	          0.05486061	         -0.14049666	          1.14515996	          0.07788850	         -0.30327842	          0.81149316	          0.06877313	         -0.19927430	          1.15559065	          0.08598918	         -0.24245378	          0.88210332	          1.13306630	         -0.19703832	          0.96333265	          1.08210933	         -0.13616678	          0.95177567	          1.08173573	         -0.26600865	          0.95105875	          1.07099700	         -0.20308611	          0.96007347	          0.92719823	         -0.20269790	          0.92986548	          0.45041782	         -0.03007204	          1.13893926	          0.53949386	         -0.30599052	          0.95791519	          0.51636970	         -0.09229679	          1.05831122	          0.56405067	         -0.24150176	          0.96374673	          0.43688515	         -0.11946090	          1.09220970	          0.48295209	         -0.23127547	          0.84067303	          0.15242435	         -0.06228357	          1.20104277	          0.19961378	         -0.32111490	          0.85578018	          0.20809366	         -0.12023602	          1.13546860	          0.23836502	         -0.28586110	          0.90932751	          0.03684908	         -0.18676874	          1.24539042	          0.09172164	         -0.28819710	
          0.76666671	          0.98942000	          0.75491595	         -0.19203819	          6.25575495	         -0.66624713	          1.68762183	        -10.70378017	          8.02685738	          5.64177465	        -12.39745331	         15.39556694	          0.00000000	          0.00000000	         20.26209259	          0.56502354	         -7.63046026	         -8.91470528	          4.03006601	          0.00000000	          0.00000000	        -26.36534882	         -0.89688045	          3.21889353	          2.65684672	        319.02598016	         -4.96277531	          0.90677661	          0.00000000	         -0.18069586	          0.00000000	          0.00000000	          0.00000000	          1.25441748	          0.00000000	         -0.25910052	          0.00000000	          0.93525330	          0.00000000	          0.00000000	          0.00000000	          0.00000000	          0.93928206	          0.67769462	         -0.19411336	          0.93541110	          0.68323362	         -0.12682796	          0.93157762	          0.68214935	         -0.25259376	          0.91026717	          0.37662649	         -0.16675778	          1.07594609	          0.39284876	         -0.25131011	          0.81596053	          0.05542961	         -0.17398143	          1.17069352	          0.08071616	         -0.27098644	          0.98942000	          0.75491595	         -0.19203819	          0.99232531	          0.75573766	         -0.09672335	          0.98651469	          0.75409424	         -0.28735304	          0.84111613	          0.77445960	         -0.17210571	          0.84001958	          0.76516539	         -0.22514518	          0.91618621	          0.36967283	         -0.11709028	          1.06871629	          0.38902208	         -0.30063644	          0.90806413	          0.37786177	         -0.21898758	          1.09609509	          0.39253691	         -0.19536655	          0.81518155	          0.05490520	         -0.14049460	          1.15785384	          0.07883383	         -0.30295289	          0.81173915	          0.06884770	         -0.19944589	          1.16814244	          0.08742781	         -0.24226671	          0.88500291	          1.13197434	         -0.19765249	          0.96638757	          1.08118272	         -0.13673103	          0.95485032	          1.08061290	         -0.26655361	          0.95409638	          1.06997073	         -0.20362857	          0.96339858	          0.92617595	         -0.20304145	          0.93337297	          0.44970775	         -0.03045856	          1.14303219	          0.53862029	         -0.30501980	          0.96154040	          0.51555866	         -0.09279823	          1.06176460	          0.56284684	         -0.24079597	          0.96738255	          0.43605626	         -0.11997627	          1.09630620	          0.48210302	         -0.23060332	          0.84173417	          0.15241034	         -0.06236621	          1.21040690	          0.20222586	         -0.32061583	          0.85761946	          0.20768881	         -0.12068096	          1.14374506	          0.23916373	         -0.28521311	          0.90938586	          0.03682233	         -0.18670607	          1.25790071	          0.09492876	         -0.28766105	
          0.77500004	          0.99337447	          0.75403965	         -0.19239658	          6.29825354	         -0.73946315	          1.68063009	        -10.96493816	          8.11573792	          5.83259153	        -12.68254566	         15.83993435	          0.00000000	          0.00000000	         20.29725266	          0.67976540	         -7.41285849	         -7.62243462	          3.79396605	          0.00000000	          0.00000000	        -26.25554085	         -0.85476404	          3.21258616	          2.91108540	        321.13180112	         -5.21063688	          0.90812030	          0.00000000	         -0.18056808	          0.00000000	          0.00000000	          0.00000000	          1.25466309	          0.00000000	         -0.25906885	          0.00000000	          0.90981903	          0.00000000	          0.00000000	          0.00000000	          0.00000000	          0.94328058	          0.67677045	         -0.19441052	          0.93941915	          0.68240094	         -0.12709405	          0.93558574	          0.68115240	         -0.25285834	          0.91310388	          0.37595814	         -0.16705789	          1.08036733	          0.39205384	         -0.25056332	          0.81605715	          0.05547808	         -0.17397854	          1.18263817	          0.08197396	         -0.27059010	          0.99337447	          0.75403965	         -0.19239658	          0.99627829	          0.75498539	         -0.09712790	          0.99047059	          0.75309384	         -0.28766528	          0.84510893	          0.77350640	         -0.17268924	          0.84400487	          0.76411319	         -0.22573467	          0.91915452	          0.36896411	         -0.11741191	          1.07335436	          0.38814995	         -0.29991490	          0.91127169	          0.37728551	         -0.21954182	          1.10008967	          0.39175376	         -0.19445698	          0.81531352	          0.05498009	         -0.14049049	          1.16980362	          0.07980438	         -0.30254030	          0.81188858	          0.06902375	         -0.19968401	          1.17985487	          0.08882912	         -0.24200061	          0.88793355	          1.13074267	         -0.19834068	          0.96942371	          1.08023894	         -0.13730302	          0.95792419	          1.07956421	         -0.26720113	          0.95714813	          1.06896389	         -0.20418678	          0.96690261	          0.92518765	         -0.20356548	          0.93689132	          0.44899580	         -0.03081556	          1.14720476	          0.53782421	         -0.30407825	          0.96511889	          0.51476586	         -0.09327367	          1.06524658	          0.56181282	         -0.24027577	          0.97083557	          0.43529370	         -0.12056888	          1.10007930	          0.48132297	         -0.22978723	          0.84280896	          0.15239809	         -0.06246213	          1.21925259	          0.20461839	         -0.32014662	          0.85928553	          0.20727843	         -0.12092084	          1.15187466	          0.24011366	         -0.28484815	          0.90944618	          0.03680207	         -0.18664497	          1.26966524	          0.09793543	         -0.28711447	
